<svg id="visual" viewBox="0 0 1980 1080" width="1980" height="1080" xmlns="http://www.w3.org/2000/svg" xmlns:xlink="http://www.w3.org/1999/xlink" version="1.1"><rect x="0" y="0" width="1980" height="1080" fill="#002233"></rect><path d="M0 744L36.7 739.3C73.3 734.7 146.7 725.3 220 729C293.3 732.7 366.7 749.3 440 754C513.3 758.7 586.7 751.3 660 744.5C733.3 737.7 806.7 731.3 880 736.7C953.3 742 1026.7 759 1100 770.3C1173.3 781.7 1246.7 787.3 1320 802.3C1393.3 817.3 1466.7 841.7 1540 852.8C1613.3 864 1686.7 862 1760 841.2C1833.3 820.3 1906.7 780.7 1943.3 760.8L1980 741L1980 1081L1943.3 1081C1906.7 1081 1833.3 1081 1760 1081C1686.7 1081 1613.3 1081 1540 1081C1466.7 1081 1393.3 1081 1320 1081C1246.7 1081 1173.3 1081 1100 1081C1026.7 1081 953.3 1081 880 1081C806.7 1081 733.3 1081 660 1081C586.7 1081 513.3 1081 440 1081C366.7 1081 293.3 1081 220 1081C146.7 1081 73.3 1081 36.7 1081L0 1081Z" fill="#0066FF" stroke-linecap="round" stroke-linejoin="miter"></path></svg>